<svg xmlns="http://www.w3.org/2000/svg" xml:space="preserve" style="enable-background:new 0 0 256.29 64.4" viewBox="0 0 256.29 64.4">
<style>
#and-underline { fill: #AF1E24; }
:is(#copus, #attorneys) { fill: #000 }
@media (prefers-color-scheme: dark) {
  #and-underline { fill: #AF1E24; }
  :is(#copus, #attorneys) { fill: rgb(255 255 255 / .80) }
}
</style>
<g id="and-underline"><path d="M22.56 58.29c-5.63 0-10.26-2.08-13.89-6.25-2.64-3.06-3.97-6.26-3.97-9.61 0-2.73.77-5.04 2.32-6.91 1.5-1.85 3.01-2.77 4.54-2.77.98 0 2.18.84 3.59 2.53 1.74 2.1 4.12 4.7 7.14 7.79 3.02 3.09 5.46 5.44 7.31 7.04l3.29 2.77c.21.21.67.63 1.4 1.27-3.14 2.76-7.05 4.14-11.73 4.14m149.82 2.56H53.58c-3.44 0-7.9-4.34-13.84-9.33 1.66-2.93 2.67-6.33 3.01-10.19.14-1.69.35-2.86.64-3.5.28-.64.79-1.1 1.52-1.37.64-.22.95-.51.92-.87-.02-.36-.24-.54-.65-.54-.34 0-.92.04-1.72.1-.85.09-1.8.13-2.85.13-3.28 0-5.25-.04-5.94-.13-.44-.07-.75-.1-.93-.1-.48 0-.74.16-.76.47-.02.47.31.77.99.9l1.61.31c1.21.23 2.17.95 2.88 2.16.7 1.21 1.06 2.72 1.06 4.53 0 2.45-.58 4.67-1.75 6.66-4.1-3.51-7.27-6.42-9.5-8.72l-8.62-8.89c-2.55-2.65-4.37-4.8-5.44-6.46-1.07-1.67-1.61-3.15-1.61-4.45 0-1.39.57-2.58 1.71-3.56 1.14-.98 2.5-1.47 4.1-1.47 1.89 0 3.82.73 5.79 2.19 1.97 1.46 3.27 3.12 3.91 4.97.18.54.42.82.72.82.5 0 .75-.25.75-.75 0-.14-.01-.49-.03-1.06L29.4 20l-.1-1.88c0-1.66-.31-2.48-.93-2.46-.16 0-.35.09-.58.27-.3.23-.54.35-.72.37l-.34-.07-1.6-.62c-1.85-.71-3.62-1.06-5.31-1.06-3.33 0-6.02.83-8.06 2.5-2.04 1.67-3.07 3.85-3.07 6.57 0 2.53 1.02 5.11 3.05 7.74-2.85.69-5.07 1.83-6.64 3.42C2.22 37.63.79 41.11.79 45.22c0 4.97 1.86 9.1 5.6 12.36 3.73 3.26 8.44 4.9 14.12 4.9 5.57 0 10.88-2.24 15.92-6.71 3.56 2.74 6.28 4.54 8.15 5.41 1.59.74 2.89 1.43 5.99 1.43h121.77c.57 0 1.08-.33 1.08-.89-.01-.54-.47-.87-1.04-.87M185.9 62.64c-.57 0-1.02-.33-1.02-.89 0-.57.46-.87 1.02-.87h68.41c.56 0 1.02.3 1.02.87 0 .57-.46.89-1.02.89H185.9z" class="st0"/></g>
<g id="copus"><path d="M27.78 1.08c7.23 0 9.23 2.96 10.34 2.96.31 0 .54-.38.92-.38.42 0 .42.62.54 3.11.08 2.04.42 3.31-.23 3.31-.46 0-.73-1-.88-1.27C36.09 4.7 33.36 2.2 28.4 2.2c-7.5 0-11.11 5-11.11 12.15 0 6.69 3.85 13.38 11.23 13.38 6.04 0 9.81-3.85 10.38-5.61.08-.27.31-.5.54-.5.19 0 .38.23.35.42l-.88 3.85c-.04.15-2.77 3.04-11.42 3.04-7.88 0-13.54-5.42-13.54-13.38S19.67 1.08 27.78 1.08zM40.9 14.89c0-8 6.23-13.8 14.11-13.8 7.84 0 13.88 5.65 13.88 13.61 0 8.65-5.96 14.23-14.54 14.23C46.01 28.92 40.9 23 40.9 14.89zm2.8-1.12c0 7.11 4.65 14 12.27 14 5.61 0 10.11-4.5 10.11-11.61 0-7-4.73-13.8-12.23-13.8C47.4 2.35 43.7 7.7 43.7 13.77zM76.01 23.35c0 5.54 4.04 3.54 4.04 4.84 0 .27-.15.46-1.12.46-1.31 0-1.88-.15-4.15-.15-1.81 0-3.08.15-4.19.15-.23 0-.62-.12-.62-.46 0-1.04 3 .15 3-4.11V5.66c0-4.61-3.15-2.27-3.15-3.65 0-.31.19-.58.5-.58.35 0 1.69.15 3.92.15 1.92 0 2.54-.15 4.38-.15 4.88 0 10.31 1.69 10.31 7.42 0 1.54-1.15 7.38-9.34 7.38-.38 0-2.61-.19-2.61-.88 0-.27.19-.35.38-.35.31 0 1.12.23 2.5.23 3.92 0 6.23-1.88 6.23-5.34 0-4.65-3.58-7.11-8-7.11-1.23 0-2.08 0-2.08 1.15v19.42zM95 18.39c0 6.15 4 8.96 9.19 8.96 7.23 0 8.88-4.77 8.88-9.31V5.58c0-3.92-3.58-2.31-3.58-3.77 0-.19.27-.38.38-.38 1.5 0 3 .15 4.5.15.73 0 1.42-.15 2.11-.15.19 0 .5.19.5.42 0 1.08-2.27.23-2.27 3.77v11.92c0 1.88.46 11.38-10.73 11.38-10.11 0-12.04-5.65-12.04-11.57V4.39c0-2.27-3.11-1.35-3.11-2.58 0-.27.65-.38.85-.38 1 0 1.96.15 3 .15 1.23 0 2.46-.15 3.65-.15.19 0 1.23-.08 1.23.38 0 1.08-2.58 0-2.58 2.77v13.81zM119.77 21.85c-.15-.77.04-1.19.42-1.19.54 0 .54.46.73 1.27.46 1.77 2.77 5.77 8.07 5.77 3.65 0 7.23-2.04 7.23-6.08 0-7.42-15.61-3.27-15.61-13.3 0-4.88 4.11-7.23 8.54-7.23 4.65 0 5.92 1.38 6.46 1.38.35 0 .42-.42.81-.42.23 0 .42.12.46.54l.58 5.23c.04.31-.04.58-.42.58-.42 0-.69-.81-.81-1.15-1.15-3.31-3.96-5-7.34-5-3.04 0-6.27 1.46-6.27 5 0 7.23 15.61 3 15.61 13.61 0 3.23-2.27 8.07-11 8.07-2.85 0-6.34-1.42-6.5-2.11l-.96-4.97zM63.93 30.66c7.23 0 9.23 2.96 10.34 2.96.31 0 .54-.38.92-.38.42 0 .42.62.54 3.11.08 2.04.42 3.31-.23 3.31-.46 0-.73-1-.88-1.27-2.38-4.11-5.11-6.61-10.07-6.61-7.5 0-11.11 5-11.11 12.15 0 6.69 3.85 13.38 11.23 13.38 6.04 0 9.81-3.85 10.38-5.61.08-.27.31-.5.54-.5.19 0 .38.23.35.42l-.88 3.85c-.04.15-2.77 3.04-11.42 3.04-7.88 0-13.54-5.42-13.54-13.38s5.72-14.47 13.83-14.47zM77.05 44.46c0-8 6.23-13.8 14.11-13.8 7.84 0 13.88 5.65 13.88 13.61 0 8.65-5.96 14.23-14.54 14.23-8.34 0-13.45-5.92-13.45-14.04zm2.8-1.11c0 7.11 4.65 14 12.27 14 5.61 0 10.11-4.5 10.11-11.61 0-7-4.73-13.8-12.23-13.8-6.46-.01-10.15 5.33-10.15 11.41zM112.16 52.92c0 5.54 4.04 3.54 4.04 4.84 0 .27-.15.46-1.12.46-1.31 0-1.88-.15-4.15-.15-1.81 0-3.08.15-4.19.15-.23 0-.62-.12-.62-.46 0-1.04 3 .15 3-4.11V35.23c0-4.61-3.15-2.27-3.15-3.65 0-.31.19-.58.5-.58.35 0 1.69.15 3.92.15 1.92 0 2.54-.15 4.38-.15 4.88 0 10.31 1.69 10.31 7.42 0 1.54-1.15 7.38-9.34 7.38-.38 0-2.61-.19-2.61-.88 0-.27.19-.35.38-.35.31 0 1.11.23 2.5.23 3.92 0 6.23-1.88 6.23-5.34 0-4.65-3.58-7.11-8-7.11-1.23 0-2.08 0-2.08 1.15v19.42zM131.15 47.96c0 6.15 4 8.96 9.19 8.96 7.23 0 8.88-4.77 8.88-9.31V35.16c0-3.92-3.58-2.31-3.58-3.77 0-.19.27-.38.38-.38 1.5 0 3 .15 4.5.15.73 0 1.42-.15 2.12-.15.19 0 .5.19.5.42 0 1.08-2.27.23-2.27 3.77v11.92c0 1.88.46 11.38-10.73 11.38-10.11 0-12.04-5.65-12.04-11.57V33.96c0-2.27-3.11-1.35-3.11-2.58 0-.27.65-.38.85-.38 1 0 1.96.15 3 .15 1.23 0 2.46-.15 3.65-.15.19 0 1.23-.08 1.23.38 0 1.08-2.58 0-2.58 2.77v13.81zM154.81 51.42c-.15-.77.04-1.19.42-1.19.54 0 .54.46.73 1.27.46 1.77 2.77 5.77 8.07 5.77 3.65 0 7.23-2.04 7.23-6.08 0-7.42-15.61-3.27-15.61-13.3 0-4.88 4.11-7.23 8.54-7.23 4.65 0 5.92 1.38 6.46 1.38.35 0 .42-.42.81-.42.23 0 .42.12.46.54l.58 5.23c.04.31-.04.58-.42.58-.42 0-.69-.81-.81-1.15-1.15-3.31-3.96-5-7.34-5-3.04 0-6.27 1.46-6.27 5 0 7.23 15.61 3 15.61 13.61 0 3.23-2.27 8.07-11 8.07-2.85 0-6.34-1.42-6.5-2.11l-.96-4.97zM181.22 57.34c0 3.77-2.88 6.34-4 6.34-.27 0-.35-.19-.35-.38 0-.58 2.08-1.27 2.08-3.88 0-2.54-2.58-3.27-2.58-3.88 0-.58 1.65-2.27 2.35-2.27.77 0 2.5 1.53 2.5 4.07zM199.72 52.92c0 5.54 4.04 3.54 4.04 4.84 0 .27-.15.46-1.12.46-1.31 0-1.88-.15-4.15-.15-1.81 0-3.08.15-4.19.15-.23 0-.62-.12-.62-.46 0-1.04 3 .15 3-4.11V35.23c0-4.61-3.15-2.27-3.15-3.65 0-.31.19-.58.5-.58.35 0 1.69.15 3.92.15 1.92 0 2.54-.15 4.38-.15 4.88 0 10.31 1.69 10.31 7.42 0 1.54-1.15 7.38-9.34 7.38-.38 0-2.62-.19-2.62-.88 0-.27.19-.35.38-.35.31 0 1.12.23 2.5.23 3.92 0 6.23-1.88 6.23-5.34 0-4.65-3.58-7.11-8-7.11-1.23 0-2.08 0-2.08 1.15v19.42zM212.26 54.42c.81-.92.69-1.27 1.19-1.27.54 0 .38.35 1.23 1.27.73.81 1.23.69 1.23 1.19s-.5.46-1.23 1.31c-.85.77-.69 1.15-1.23 1.15-.5 0-.38-.38-1.19-1.15-.77-.85-1.27-.81-1.27-1.31s.5-.38 1.27-1.19zM238.37 49.04c-.38-.88-.62-1.46-1.69-1.46h-8.46c-.73 0-1.42 0-1.81.81l-2.46 5.38c-.12.27-.27.85-.27 1.35 0 2.69 2.73 1.54 2.73 2.54 0 .69-.54.58-1.04.58-1.08 0-2.15-.15-3.23-.15-1.04 0-2.08.15-3.08.15-.23 0-.35-.19-.35-.42 0-.81 1.81-.15 2.81-2.35l9.19-19.61c2.27-4.85 2.38-5.46 2.88-5.46.42 0 .69 1.12.81 1.42l8 19.8c.58 1.42 1.04 3.04 1.92 4.38 1.15 1.77 3.38.92 3.38 1.88 0 .35-.27.35-.54.35-1.58 0-3.15-.15-4.73-.15-1.04 0-2.08.15-3.11.15-.23 0-.85 0-.85-.38 0-.92 2.31-.54 2.31-2 0-.85-.81-2.62-1.19-3.65l-1.22-3.16zm-10.38-3.85c-.27.54 0 .69.5.69h7.61c.85 0 .81-.27.62-.77l-3.77-9.27c-.19-.46-.38-.46-.62 0l-4.34 9.35zM251.68 54.42c.81-.92.69-1.27 1.19-1.27.54 0 .38.35 1.23 1.27.73.81 1.23.69 1.23 1.19s-.5.46-1.23 1.31c-.85.77-.69 1.15-1.23 1.15-.5 0-.38-.38-1.19-1.15-.77-.85-1.27-.81-1.27-1.31s.5-.38 1.27-1.19z"/></g>
<g id="attorneys"><path d="M148.47 21.32h1.1l2.6 7.17h-1.06l-.73-2.15h-2.84l-.78 2.15h-1l2.71-7.17zm1.6 4.23-1.09-3.17-1.16 3.17h2.25zM161.13 21.32v.85h-2.42v6.32h-.98v-6.32h-2.42v-.85h5.82zM170.84 21.32v.85h-2.42v6.32h-.98v-6.32h-2.42v-.85h5.82zM181.07 22.34c.47.63.71 1.45.71 2.44 0 1.07-.27 1.96-.82 2.67-.64.83-1.55 1.25-2.73 1.25-1.1 0-1.97-.36-2.6-1.09-.56-.7-.84-1.59-.84-2.67 0-.97.24-1.8.72-2.49.62-.89 1.53-1.33 2.74-1.33 1.27 0 2.21.41 2.82 1.22zm-.86 4.58c.38-.61.57-1.32.57-2.12 0-.84-.22-1.52-.66-2.04-.44-.51-1.04-.77-1.81-.77-.74 0-1.35.25-1.82.76s-.7 1.26-.7 2.26c0 .79.2 1.47.6 2.01.4.55 1.05.82 1.96.82.86 0 1.48-.31 1.86-.92zM186.66 21.32h3.26c.54 0 .98.08 1.33.24.66.31.99.87.99 1.69 0 .43-.09.78-.27 1.05-.18.27-.43.49-.75.66.28.11.49.26.63.45s.22.49.24.9l.03.96c.01.27.03.48.07.61.06.23.16.37.31.44v.16h-1.19c-.03-.06-.06-.14-.08-.24s-.04-.29-.05-.57l-.06-1.2c-.02-.47-.19-.78-.51-.94-.18-.09-.46-.13-.85-.13h-2.15v3.08h-.97v-7.16zm3.15 3.28c.44 0 .79-.09 1.05-.27s.39-.51.39-.99c0-.51-.18-.86-.54-1.04-.19-.1-.45-.15-.77-.15h-2.31v2.45h2.18zM197.36 21.32h1.14l3.58 5.8v-5.8h.93v7.17h-1.09l-3.63-5.79v5.79h-.93v-7.17zM208.27 21.32h5.21v.88h-4.26v2.18h3.94v.83h-3.94v2.43h4.33v.85h-5.28v-7.17zM217.9 21.32h1.13l2.06 3.45 2.06-3.45h1.14l-2.72 4.28v2.89h-.97V25.6l-2.7-4.28zM229.36 26.18c.02.41.11.74.28.99.31.48.86.71 1.64.71.35 0 .67-.05.96-.16.56-.2.84-.56.84-1.08 0-.39-.12-.67-.36-.83-.24-.16-.61-.3-1.12-.42l-.94-.22c-.62-.14-1.05-.3-1.31-.47-.44-.3-.66-.75-.66-1.34 0-.64.22-1.17.65-1.59.43-.41 1.05-.62 1.84-.62.73 0 1.35.18 1.87.54s.77.94.77 1.74h-.91c-.05-.38-.15-.68-.3-.88-.28-.37-.77-.56-1.45-.56-.55 0-.94.12-1.18.36s-.36.52-.36.84c0 .35.14.61.43.77.19.1.61.23 1.26.39l.97.23c.47.11.83.26 1.09.45.44.34.66.82.66 1.46 0 .79-.28 1.36-.85 1.7s-1.22.51-1.96.51c-.87 0-1.55-.23-2.04-.68-.49-.45-.73-1.07-.72-1.84h.9z"/></g></svg>