<svg xmlns="http://www.w3.org/2000/svg" xml:space="preserve" style="enable-background:new 0 0 37.34 37.34" viewBox="0 0 37.34 37.34"><circle cx="18.67" cy="18.67" r="18.67" style="fill:var(--brand);"/><path d="M30.2 7.32H7.14a.49.49 0 0 0-.49.49v2.45c0 .27.22.49.49.49h1.09c-.05.08-.09.17-.09.28v2.45c0 .27.22.49.49.49h1.66v18.98l16.76-4.4v-14.6h1.66c.27 0 .49-.22.49-.49v-2.45c0-.1-.03-.2-.09-.28h1.09c.27 0 .49-.22.49-.49V7.8c0-.26-.22-.48-.49-.48zM14.49 29.75c0 .25-.2.46-.46.46h-.71c-.25 0-.46-.2-.46-.46V15.19c0-.25.2-.46.46-.46h.71c.25 0 .46.2.46.46v14.56zm3.28-.87c0 .25-.2.46-.46.46h-.71c-.25 0-.46-.2-.46-.46V15.19c0-.25.2-.46.46-.46h.71c.25 0 .46.2.46.46v13.69zm3.28-.9c0 .25-.2.46-.46.46h-.71c-.25 0-.46-.2-.46-.46V15.19c0-.25.2-.46.46-.46h.71c.25 0 .46.2.46.46v12.79zm3.29-.76c0 .25-.2.46-.46.46h-.71c-.25 0-.46-.2-.46-.46V15.19c0-.25.2-.46.46-.46h.71c.25 0 .46.2.46.46v12.03z" style="fill:#fff"/></svg>